<?xml version="1.0" encoding="UTF-8"?>
<svg version="1.1" xmlns="http://www.w3.org/2000/svg" width="101" height="79">
<path d="M0 0 C0.75474609 0.00064453 1.50949219 0.00128906 2.28710938 0.00195312 C5.83291407 0.03006964 9.02695316 0.23577468 12.4375 1.1875 C12.63836443 4.90349191 12.5894437 5.95958445 10.4375 9.1875 C10.35844936 11.51949388 10.34951231 13.85582622 10.4375 16.1875 C8.7875 16.1875 7.1375 16.1875 5.4375 16.1875 C5.31375 15.094375 5.19 14.00125 5.0625 12.875 C4.68285199 9.11368198 4.68285199 9.11368198 2.4375 6.1875 C1.9425 5.1975 1.9425 5.1975 1.4375 4.1875 C-2.29737777 4.6854837 -4.37487635 5.06241756 -7.5625 7.1875 C-8.5525 7.6825 -8.5525 7.6825 -9.5625 8.1875 C-9.8925 9.1775 -10.2225 10.1675 -10.5625 11.1875 C-11.2225 11.1875 -11.8825 11.1875 -12.5625 11.1875 C-12.376875 12.30125 -12.19125 13.415 -12 14.5625 C-11.5625 18.1875 -11.5625 18.1875 -12.5625 20.1875 C-11.9025 20.5175 -11.2425 20.8475 -10.5625 21.1875 C-11.5525 22.5075 -12.5425 23.8275 -13.5625 25.1875 C-12.69625 24.2903125 -12.69625 24.2903125 -11.8125 23.375 C-11.07 22.653125 -10.3275 21.93125 -9.5625 21.1875 C-8.76972656 20.41212891 -8.76972656 20.41212891 -7.9609375 19.62109375 C-4.44066756 17.51695846 -0.9713604 17.40767933 3.0625 17.0625 C8.41329949 16.76281821 8.41329949 16.76281821 13.4375 15.1875 C16.23301999 17.25375391 16.44817926 18.25632192 17 21.8125 C17.144375 22.92625 17.28875 24.04 17.4375 25.1875 C18.0975 25.5175 18.7575 25.8475 19.4375 26.1875 C19.4375 28.1675 19.4375 30.1475 19.4375 32.1875 C20.4275 32.6825 20.4275 32.6825 21.4375 33.1875 C21.4375 35.1675 21.4375 37.1475 21.4375 39.1875 C22.0975 39.1875 22.7575 39.1875 23.4375 39.1875 C23.96723311 40.80962059 24.48603107 42.43531584 25 44.0625 C25.29003906 44.96742187 25.58007812 45.87234375 25.87890625 46.8046875 C26.4375 49.1875 26.4375 49.1875 25.4375 51.1875 C26.0975 51.5175 26.7575 51.8475 27.4375 52.1875 C26.9425 53.1775 26.9425 53.1775 26.4375 54.1875 C27.9225 54.6825 27.9225 54.6825 29.4375 55.1875 C29.61925781 53.90552734 29.61925781 53.90552734 29.8046875 52.59765625 C29.97226563 51.49292969 30.13984375 50.38820312 30.3125 49.25 C30.47492188 48.14785156 30.63734375 47.04570313 30.8046875 45.91015625 C31.01351562 45.01167969 31.22234375 44.11320312 31.4375 43.1875 C32.0975 42.8575 32.7575 42.5275 33.4375 42.1875 C32.9425 40.2075 32.9425 40.2075 32.4375 38.1875 C33.0975 38.1875 33.7575 38.1875 34.4375 38.1875 C34.23125 37.65125 34.025 37.115 33.8125 36.5625 C33.11701215 32.15774362 35.27466403 27.97246294 37.4375 24.1875 C38.0975 23.5275 38.7575 22.8675 39.4375 22.1875 C39.7675 21.5275 40.0975 20.8675 40.4375 20.1875 C41.77083333 18.85416667 43.10416667 17.52083333 44.4375 16.1875 C44.7675 15.5275 45.0975 14.8675 45.4375 14.1875 C49.73373377 12.64840966 54.06896642 13.12220542 58.4375 14.1875 C60.5625 15.9375 60.5625 15.9375 61.4375 18.1875 C61.125 20.9375 61.125 20.9375 60.4375 23.1875 C57.39524969 23.25825001 54.76835731 23.2741531 51.8125 22.5 C49.38377013 21.93981227 49.38377013 21.93981227 47.3125 23.375 C43.20720227 27.34345447 41.92020608 30.65206396 40.4375 36.1875 C39.78536461 37.52800052 39.12370031 38.86411368 38.4375 40.1875 C38.4375 40.8475 38.4375 41.5075 38.4375 42.1875 C37.7775 42.1875 37.1175 42.1875 36.4375 42.1875 C36.9325 44.1675 36.9325 44.1675 37.4375 46.1875 C36.7775 46.1875 36.1175 46.1875 35.4375 46.1875 C35.4375 49.1575 35.4375 52.1275 35.4375 55.1875 C34.7775 55.1875 34.1175 55.1875 33.4375 55.1875 C33.499375 56.404375 33.56125 57.62125 33.625 58.875 C33.65524505 65.18613441 32.01448636 71.11422515 30.4375 77.1875 C27.4375 76.1875 27.4375 76.1875 25.9375 74.1875 C24.31763152 70.94776305 23.22886767 67.7340619 22.18359375 64.2734375 C21.43992801 61.92889375 21.43992801 61.92889375 19.4375 59.1875 C18.25 55.625 18.25 55.625 17.4375 52.1875 C17.9325 51.1975 17.9325 51.1975 18.4375 50.1875 C17.4475 49.6925 17.4475 49.6925 16.4375 49.1875 C16.9325 48.1975 16.9325 48.1975 17.4375 47.1875 C16.4475 46.6925 16.4475 46.6925 15.4375 46.1875 C15.9325 45.1975 15.9325 45.1975 16.4375 44.1875 C15.4475 43.6925 15.4475 43.6925 14.4375 43.1875 C14.9325 42.1975 14.9325 42.1975 15.4375 41.1875 C14.4475 40.6925 14.4475 40.6925 13.4375 40.1875 C13.9325 39.1975 13.9325 39.1975 14.4375 38.1875 C13.4475 37.6925 13.4475 37.6925 12.4375 37.1875 C12.9325 36.1975 12.9325 36.1975 13.4375 35.1875 C12.4475 34.6925 12.4475 34.6925 11.4375 34.1875 C9.89107192 39.8577363 8.95232919 45.334705 8.4375 51.1875 C7.7775 51.1875 7.1175 51.1875 6.4375 51.1875 C6.9325 53.1675 6.9325 53.1675 7.4375 55.1875 C6.7775 55.1875 6.1175 55.1875 5.4375 55.1875 C5.7675 56.1775 6.0975 57.1675 6.4375 58.1875 C4.21603975 66.20558308 1.04338935 71.26546479 -5.5625 76.1875 C-5.5625 76.8475 -5.5625 77.5075 -5.5625 78.1875 C-10.92769104 79.61821761 -17.52510752 80.30209098 -22.80859375 78.36328125 C-24.5625 77.1875 -24.5625 77.1875 -25.5625 74.1875 C-24.625 71 -24.625 71 -23.5625 68.1875 C-21.21078869 68.78611742 -18.8765622 69.45674352 -16.5625 70.1875 C-16.0675 71.1775 -16.0675 71.1775 -15.5625 72.1875 C-12.53315509 72.84522428 -12.53315509 72.84522428 -9.5625 73.1875 C-9.2325 72.5275 -8.9025 71.8675 -8.5625 71.1875 C-8.088125 70.589375 -7.61375 69.99125 -7.125 69.375 C-5.09315142 66.53041199 -3.5625 63.73654187 -3.5625 60.1875 C-3.93375 60.64125 -4.305 61.095 -4.6875 61.5625 C-9.56927049 65.79336776 -15.47522835 65.50788272 -21.5625 65.1875 C-22.366875 65.14625 -23.17125 65.105 -24 65.0625 C-28.38700855 64.71615722 -31.26824027 64.34998934 -34.5625 61.1875 C-35.2225 60.8575 -35.8825 60.5275 -36.5625 60.1875 C-39.24090463 57.50909537 -39.55602532 56.31699356 -39.75 52.4375 C-39.6571875 50.82875 -39.6571875 50.82875 -39.5625 49.1875 C-36.56362135 48.22357472 -34.47435125 47.82863609 -31.5625 49.1875 C-30.4375 51.5625 -30.4375 51.5625 -29.5625 54.1875 C-27.49466817 57.28924775 -26.94281589 57.99982145 -23.5625 59.1875 C-18.67494831 59.65402494 -18.67494831 59.65402494 -14.3125 57.75 C-13.735 57.234375 -13.1575 56.71875 -12.5625 56.1875 C-11.0775 55.6925 -11.0775 55.6925 -9.5625 55.1875 C-9.2325 54.1975 -8.9025 53.2075 -8.5625 52.1875 C-7.9025 52.1875 -7.2425 52.1875 -6.5625 52.1875 C-6.8925 51.1975 -7.2225 50.2075 -7.5625 49.1875 C-7.125 47 -7.125 47 -6.5625 45.1875 C-7.820625 45.414375 -9.07875 45.64125 -10.375 45.875 C-13.00642252 46.34951882 -14.05466146 46.52605903 -16.30859375 45.0234375 C-17.96421691 42.59931636 -17.89828169 41.03728824 -17.8125 38.125 C-17.79703125 37.24714844 -17.7815625 36.36929688 -17.765625 35.46484375 C-17.5625 33.1875 -17.5625 33.1875 -16.5625 31.1875 C-17.45413577 29.07066159 -17.45413577 29.07066159 -18.5625 27.1875 C-19.2225 27.1875 -19.8825 27.1875 -20.5625 27.1875 C-21.9583935 20.92300234 -23.20655023 13.94715574 -19.8125 8.25 C-19.07 7.569375 -18.3275 6.88875 -17.5625 6.1875 C-16.923125 5.465625 -16.28375 4.74375 -15.625 4 C-10.87417133 -0.17497065 -6.00753991 -0.09797705 0 0 Z M2.4375 21.1875 C2.4375 21.8475 2.4375 22.5075 2.4375 23.1875 C1.839375 22.960625 1.24125 22.73375 0.625 22.5 C-0.4578125 22.3453125 -0.4578125 22.3453125 -1.5625 22.1875 C-3.33440909 23.54194301 -3.33440909 23.54194301 -4.5625 25.1875 C-3.96388258 27.53921131 -3.29325648 29.8734378 -2.5625 32.1875 C-1.9025 32.5175 -1.2425 32.8475 -0.5625 33.1875 C-0.20330332 34.84878463 0.12661632 36.51650023 0.4375 38.1875 C1.42833967 40.42158113 1.42833967 40.42158113 2.4375 42.1875 C3.0975 42.1875 3.7575 42.1875 4.4375 42.1875 C5.7575 35.2575 7.0775 28.3275 8.4375 21.1875 C6.4575 21.1875 4.4775 21.1875 2.4375 21.1875 Z M-11.5625 31.1875 C-11.5625 33.1675 -11.5625 35.1475 -11.5625 37.1875 C-10.9025 36.5275 -10.2425 35.8675 -9.5625 35.1875 C-9.5625 33.8675 -9.5625 32.5475 -9.5625 31.1875 C-10.2225 31.1875 -10.8825 31.1875 -11.5625 31.1875 Z M-8.5625 42.1875 C-8.5625 42.8475 -8.5625 43.5075 -8.5625 44.1875 C-7.9025 44.1875 -7.2425 44.1875 -6.5625 44.1875 C-6.5625 43.5275 -6.5625 42.8675 -6.5625 42.1875 C-7.2225 42.1875 -7.8825 42.1875 -8.5625 42.1875 Z M2.4375 43.1875 C3.4375 47.1875 3.4375 47.1875 3.4375 47.1875 Z M-0.5625 55.1875 C-0.8925 55.8475 -1.2225 56.5075 -1.5625 57.1875 C-0.9025 57.1875 -0.2425 57.1875 0.4375 57.1875 C0.1075 56.5275 -0.2225 55.8675 -0.5625 55.1875 Z M28.4375 57.1875 C29.4375 59.1875 29.4375 59.1875 29.4375 59.1875 Z M-1.5625 58.1875 C-0.5625 60.1875 -0.5625 60.1875 -0.5625 60.1875 Z " fill="#E6E1DD" transform="translate(39.5625,-0.1875)"/>
<path d="" fill="#000000" transform="translate(0,0)"/>
<path d="" fill="#000000" transform="translate(0,0)"/>
<path d="" fill="#000000" transform="translate(0,0)"/>
<path d="" fill="#000000" transform="translate(0,0)"/>
<path d="" fill="#000000" transform="translate(0,0)"/>
<path d="" fill="#000000" transform="translate(0,0)"/>
<path d="" fill="#000000" transform="translate(0,0)"/>
<path d="" fill="#000000" transform="translate(0,0)"/>
<path d="" fill="#000000" transform="translate(0,0)"/>
<path d="" fill="#000000" transform="translate(0,0)"/>
<path d="" fill="#000000" transform="translate(0,0)"/>
<path d="" fill="#000000" transform="translate(0,0)"/>
<path d="" fill="#000000" transform="translate(0,0)"/>
<path d="" fill="#000000" transform="translate(0,0)"/>
<path d="" fill="#400000" transform="translate(0,0)"/>
<path d="" fill="#000000" transform="translate(0,0)"/>
<path d="" fill="#000000" transform="translate(0,0)"/>
<path d="" fill="#550000" transform="translate(0,0)"/>
<path d="" fill="#000000" transform="translate(0,0)"/>
<path d="" fill="#000000" transform="translate(0,0)"/>
<path d="" fill="#000000" transform="translate(0,0)"/>
<path d="" fill="#000000" transform="translate(0,0)"/>
<path d="" fill="#000000" transform="translate(0,0)"/>
<path d="" fill="#000000" transform="translate(0,0)"/>
<path d="" fill="#550000" transform="translate(0,0)"/>
<path d="" fill="#000000" transform="translate(0,0)"/>
<path d="" fill="#000000" transform="translate(0,0)"/>
<path d="" fill="#000000" transform="translate(0,0)"/>
<path d="" fill="#000000" transform="translate(0,0)"/>
<path d="" fill="#2A2A00" transform="translate(0,0)"/>
<path d="" fill="#240000" transform="translate(0,0)"/>
<path d="" fill="#000000" transform="translate(0,0)"/>
<path d="" fill="#333300" transform="translate(0,0)"/>
<path d="" fill="#000000" transform="translate(0,0)"/>
<path d="" fill="#000000" transform="translate(0,0)"/>
<path d="" fill="#000000" transform="translate(0,0)"/>
<path d="" fill="#000000" transform="translate(0,0)"/>
<path d="" fill="#000000" transform="translate(0,0)"/>
<path d="" fill="#FFFF00" transform="translate(0,0)"/>
<path d="" fill="#000000" transform="translate(0,0)"/>
<path d="" fill="#000000" transform="translate(0,0)"/>
<path d="" fill="#330000" transform="translate(0,0)"/>
<path d="" fill="#400000" transform="translate(0,0)"/>
<path d="" fill="#000000" transform="translate(0,0)"/>
<path d="" fill="#000000" transform="translate(0,0)"/>
<path d="" fill="#000000" transform="translate(0,0)"/>
</svg>
